<?xml version="1.0" encoding="UTF-8" standalone="no"?>
<!-- Created with Inkscape (http://www.inkscape.org/) -->

<svg
   width="1024"
   height="1024"
   viewBox="0 0 270.93333 270.93333"
   version="1.1"
   id="svg1"
   xml:space="preserve"
   sodipodi:docname="claw.svg"
   inkscape:version="1.4 (e7c3feb100, 2024-10-09)"
   xmlns:inkscape="http://www.inkscape.org/namespaces/inkscape"
   xmlns:sodipodi="http://sodipodi.sourceforge.net/DTD/sodipodi-0.dtd"
   xmlns="http://www.w3.org/2000/svg"
   xmlns:svg="http://www.w3.org/2000/svg"><sodipodi:namedview
     id="namedview1"
     pagecolor="#505050"
     bordercolor="#eeeeee"
     borderopacity="1"
     inkscape:showpageshadow="0"
     inkscape:pageopacity="0"
     inkscape:pagecheckerboard="0"
     inkscape:deskcolor="#505050"
     inkscape:document-units="mm"
     inkscape:zoom="0.71446409"
     inkscape:cx="397.50074"
     inkscape:cy="393.30178"
     inkscape:window-width="1920"
     inkscape:window-height="1011"
     inkscape:window-x="0"
     inkscape:window-y="0"
     inkscape:window-maximized="1"
     inkscape:current-layer="layer1" /><defs
     id="defs1" /><g
     inkscape:label="Camada 1"
     inkscape:groupmode="layer"
     id="layer1"><path
       style="fill:#ffffff;stroke-width:2.28571"
       d="M 27.662262,234.92494 9.9785817,199.52131 v -5.38377 -5.3838 L 24.795252,158.96412 c 14.08155,-28.31168 15.00018,-29.97513 18.51591,-33.52898 4.03442,-4.0782 9.1877,-6.91402 14.62457,-8.0478 1.7626,-0.36756 8.7994,-0.66832 15.6373,-0.66832 11.60585,0 12.40316,0.0704 11.99031,1.05836 -2.17392,5.2023 -2.92018,9.87732 -2.92018,18.29403 0,8.41671 0.74626,13.09173 2.92018,18.29406 0.40542,0.97017 -0.10583,1.05833 -6.13653,1.05833 h -6.57876 l -12.98951,18.53721 c -7.14421,10.19548 -13.21525,18.99543 -13.49116,19.55545 -0.34315,0.69646 2.8651,11.38695 10.15271,33.83079 5.91523,18.21733 10.50089,33.29616 10.30931,33.89978 -0.41182,1.2975 -17.45728,9.08153 -19.88677,9.08153 -1.50615,0 -2.59915,-2.00707 -19.28037,-35.40362 z m 185.686608,31.39143 c -5.62662,-2.51968 -9.02688,-4.38233 -9.24301,-5.06326 -0.18812,-0.59248 4.45154,-15.84627 10.31017,-33.89731 7.28889,-22.45778 10.4936,-33.14171 10.15015,-33.83881 -0.27605,-0.56032 -6.34718,-9.3605 -13.49139,-19.55598 l -12.9895,-18.53721 h -6.57877 c -6.03081,0 -6.54194,-0.0882 -6.13653,-1.05833 2.14814,-5.14064 2.90124,-9.88931 2.90124,-18.29406 0,-8.40473 -0.7531,-13.15342 -2.90124,-18.29403 -0.41284,-0.98798 0.38446,-1.05836 11.99029,-1.05836 6.83792,0 13.8747,0.30076 15.63733,0.66832 5.52525,1.15223 10.73261,4.01662 14.69524,8.08336 3.40096,3.49031 4.55804,5.59198 18.44524,33.50348 l 14.81666,29.77956 v 5.3838 5.38377 l -17.68368,35.40363 c -16.99751,34.02979 -17.74846,35.40311 -19.35239,35.39054 -0.91778,-0.007 -5.67419,-1.80679 -10.56981,-3.99911 z m -85.05371,-92.17883 c -7.81529,-1.39833 -17.13207,-6.92441 -22.45209,-13.31708 -12.729078,-15.29554 -11.817308,-37.79339 2.09366,-51.66096 12.39891,-12.360175 29.38487,-15.178785 44.96412,-7.46121 8.84274,4.3805 15.73218,12.36283 19.31403,22.37792 1.39722,3.9067 1.58403,5.33721 1.56645,11.9952 -0.0183,6.55758 -0.22766,8.14745 -1.58651,11.99541 -4.24423,12.01792 -13.21742,20.89255 -25.15488,24.87858 -4.46604,1.49127 -13.76695,2.08279 -18.74478,1.19214 z m 12.19714,-24.51342 c 1.90261,-0.64828 3.67383,-1.90894 5.43641,-3.86935 5.42268,-6.03134 5.42268,-13.33538 0,-19.3667 -5.53019,-6.15092 -13.81405,-6.47113 -20.14539,-0.77869 -6.46149,5.80941 -6.45493,15.12054 0.016,20.93734 4.4472,3.9984 9.11947,4.97692 14.69424,3.0774 z M 116.11429,77.474225 v -9.13614 h 19.35237 19.35238 v 9.01598 9.016 l -3.70976,-1.12322 c -6.16491,-1.86659 -12.2386,-2.59321 -18.53819,-2.21783 -5.16361,0.3077 -12.23317,1.74011 -15.39847,3.11998 -0.9816,0.4279 -1.05833,-0.20115 -1.05833,-8.67477 z m -8.72585,-24.60076 c -0.72089,-0.72089 -0.95036,-2.24365 -0.95036,-6.30681 0,-6.73552 0.41607,-7.25714 5.78846,-7.25714 h 3.88775 v -9.67618 -9.67621 H 58.057142 1.6666666e-6 V 10.280945 0.60476867 H 135.46666 270.93333 v 9.67617633 9.67618 h -58.05714 -58.05715 v 9.67621 9.67618 h 3.88775 c 5.37239,0 5.78844,0.52162 5.78844,7.25714 0,4.06316 -0.22944,5.58592 -0.95033,6.30681 -0.83571,0.83568 -4.22286,0.95034 -28.07824,0.95034 -23.85537,0 -27.24252,-0.11475 -28.07822,-0.95034 z"
       id="path1" /></g></svg>
