<?xml version="1.0" encoding="UTF-8" standalone="no"?>
<!-- Created with Inkscape (http://www.inkscape.org/) -->

<svg
   width="1024"
   height="1024"
   viewBox="0 0 270.93333 270.93333"
   version="1.1"
   id="svg1"
   xml:space="preserve"
   sodipodi:docname="harvester.svg"
   inkscape:version="1.4 (e7c3feb100, 2024-10-09)"
   xmlns:inkscape="http://www.inkscape.org/namespaces/inkscape"
   xmlns:sodipodi="http://sodipodi.sourceforge.net/DTD/sodipodi-0.dtd"
   xmlns="http://www.w3.org/2000/svg"
   xmlns:svg="http://www.w3.org/2000/svg"><sodipodi:namedview
     id="namedview1"
     pagecolor="#505050"
     bordercolor="#eeeeee"
     borderopacity="1"
     inkscape:showpageshadow="0"
     inkscape:pageopacity="0"
     inkscape:pagecheckerboard="0"
     inkscape:deskcolor="#505050"
     inkscape:document-units="mm"
     inkscape:zoom="0.71446409"
     inkscape:cx="397.50074"
     inkscape:cy="561.25984"
     inkscape:window-width="1920"
     inkscape:window-height="1011"
     inkscape:window-x="0"
     inkscape:window-y="0"
     inkscape:window-maximized="1"
     inkscape:current-layer="layer1" /><defs
     id="defs1" /><g
     inkscape:label="Camada 1"
     inkscape:groupmode="layer"
     id="layer1"><path
       style="fill:#ffffff;stroke-width:1.41978"
       d="m 78.326464,221.58339 c -7.21383,-1.20983 -14.450673,-6.72759 -17.823622,-13.58966 -1.567553,-3.18907 -1.76902,-4.339 -1.769148,-10.09731 -1.14e-4,-5.86502 0.184756,-6.87491 1.896886,-10.36198 2.507464,-5.10693 6.606707,-9.09222 11.944049,-11.61203 3.823282,-1.80501 5.028065,-2.05573 9.877982,-2.05573 4.854015,0 6.053362,0.25008 9.893604,2.06304 13.206155,6.23456 18.207595,22.54968 10.604695,34.59345 -5.087945,8.05985 -15.263357,12.63019 -24.624446,11.06022 z m 7.517601,-11.69358 c 8.65267,-2.40308 11.9241,-13.83345 5.82737,-20.36075 -2.22859,-2.38597 -6.303267,-4.2759 -9.218824,-4.2759 -4.524639,0 -10.078435,3.79962 -11.65572,7.97425 -0.999717,2.64598 -0.848526,7.3902 0.313558,9.83911 1.380203,2.90857 4.21201,5.48201 7.207421,6.54984 3.063445,1.09208 4.403305,1.14077 7.526195,0.27345 z m -6.31572,-5.92436 c -3.835074,-2.10903 -4.896441,-7.73003 -2.005475,-10.62099 4.417225,-4.41723 11.4452,-1.73256 11.413652,4.35997 -0.02712,5.24933 -5.104116,8.62797 -9.408177,6.26102 z m 106.369175,17.57341 c -11.39198,-1.89526 -20.92113,-11.66143 -22.91018,-23.47997 -2.02565,-12.03598 4.7191,-24.5604 16.09494,-29.88699 8.15811,-3.81992 19.13396,-3.11172 26.728,1.72461 4.0765,2.59615 7.89282,7.00782 10.34295,11.95645 6.87378,13.88324 0.64924,30.97756 -13.65273,37.49425 -2.93076,1.3354 -10.50727,3.05512 -12.49991,2.83722 -0.35741,-0.039 -2.2038,-0.32959 -4.10307,-0.64557 z m 12.0255,-15.88294 c 4.1216,-2.41541 6.26252,-6.00178 6.58248,-11.02662 0.22423,-3.5213 0.0128,-4.54671 -1.52474,-7.37039 -2.58059,-4.74137 -5.87738,-6.81308 -11.33249,-7.12131 -5.17531,-0.29243 -8.52583,1.09228 -11.56538,4.7798 -4.66341,5.65752 -4.41669,12.77384 0.63279,18.25187 4.57324,4.96137 11.3207,5.93646 17.20734,2.48665 z m -10.63519,-4.48375 c -2.45862,-1.06945 -4.03535,-3.28374 -4.53628,-6.37055 -1.22724,-7.56262 8.5345,-12.22467 13.83314,-6.60647 1.85794,1.96999 2.1887,2.79148 2.1887,5.43598 0,3.49397 -1.47812,5.92654 -4.57397,7.52747 -2.28496,1.18159 -4.21762,1.18539 -6.91159,0.0142 z m 59.72094,9.59489 0.17746,-11.49825 4.76449,-3.41601 4.76451,-3.41599 6.93255,2.4647 6.93258,2.4647 0.17647,12.44954 0.1765,12.44955 h -12.051 -12.05101 z M 111.76659,192.21208 c -2.55914,-12.39016 -12.277865,-21.77697 -24.719784,-23.87557 -11.428231,-1.92762 -22.649358,3.2183 -30.262743,13.87823 l -1.299684,1.81975 -9.238369,-11.26445 -9.238369,-11.26447 -0.02186,-11.5346 -0.02187,-11.5346 h 84.803689 84.8037 v 12.59627 12.59629 l -4.06148,-1.64458 c -7.76377,-3.14374 -19.10131,-2.60067 -26.76678,1.28211 -9.85443,4.99154 -17.07875,15.12791 -18.59217,26.08646 -0.38761,2.80669 -0.54798,5.51164 -0.35635,6.01099 0.29411,0.76646 -3.12146,0.90793 -21.92056,0.90793 H 112.605 Z m 125.29275,-16.60702 c -4.42388,-9.89918 -8.69374,-18.65647 -9.48857,-19.46063 -1.31702,-1.3325 -2.05278,-1.46214 -8.29799,-1.46214 h -6.85283 v -4.22393 -4.22394 h 8.6753 c 12.75249,0 11.63604,-1.14575 22.46779,23.0573 4.75899,10.63372 8.38429,19.51916 8.05623,19.74543 -0.32805,0.22627 -1.92849,1.34628 -3.5565,2.48891 l -2.96003,2.07749 z M 46.190866,111.63061 c 0.188873,-20.215132 0.246914,-21.052802 1.639082,-23.656172 1.772059,-3.31382 5.283551,-6.29438 8.578696,-7.28163 1.755731,-0.52603 16.107917,-0.74174 49.351016,-0.74174 h 46.87532 v 26.318392 26.31838 H 99.315015 45.995063 Z m 49.133389,2.27442 0.19982,-2.7618 H 76.966363 58.408649 v 2.49104 c 0,1.37007 0.199479,2.69053 0.443299,2.93433 0.243805,0.24382 8.504862,0.36567 18.357888,0.27077 l 17.914599,-0.17253 z m 0.12508,-18.032972 v -2.92425 H 76.928999 58.408649 v 2.92425 2.92427 h 18.52035 18.520346 z m 63.467385,36.282562 c -0.55855,-0.55856 -0.5654,-46.942192 -0.009,-57.300212 l 0.42478,-7.90007 h 35.31624 c 21.59999,0 35.31624,0.23716 35.31624,0.61065 0,0.74415 -21.80661,63.381552 -22.39987,64.341452 -0.46899,0.75885 -47.89633,1.00079 -48.64895,0.24818 z M 9.4827266,77.936268 c 8.6053174,-12.44311 9.7491794,-13.82607 12.3624454,-14.94623 2.729617,-1.17006 5.061567,-1.2344 44.740313,-1.2344 h 41.860595 v 6.17345 6.17345 H 67.788563 c -24.082061,0 -41.122037,0.2486 -41.796916,0.60979 -0.626664,0.33538 -3.57267,4.28315 -6.546675,8.7728 l -5.40727,8.16299 H 7.0188496 -1.2833333e-6 Z M 114.2946,61.385288 V 48.668036 l 14.13395,0.207899 c 13.00591,0.191301 14.34141,0.319536 16.73331,1.606782 6.00624,3.232391 8.0886,7.587561 8.10869,16.958991 l 0.0143,6.66083 h -19.49511 -19.49511 z m 44.83874,-6.45293 v -6.173456 h 40.93972 40.93971 v 6.173456 6.17344 h -40.93971 -40.93972 z"
       id="path1" /></g></svg>
