<?xml version="1.0" encoding="UTF-8" standalone="no"?>
<!-- Created with Inkscape (http://www.inkscape.org/) -->

<svg
   width="1024"
   height="1024"
   viewBox="0 0 270.93333 270.93333"
   version="1.1"
   id="svg1"
   xml:space="preserve"
   sodipodi:docname="truck.svg"
   inkscape:version="1.4 (e7c3feb100, 2024-10-09)"
   xmlns:inkscape="http://www.inkscape.org/namespaces/inkscape"
   xmlns:sodipodi="http://sodipodi.sourceforge.net/DTD/sodipodi-0.dtd"
   xmlns="http://www.w3.org/2000/svg"
   xmlns:svg="http://www.w3.org/2000/svg"><sodipodi:namedview
     id="namedview1"
     pagecolor="#505050"
     bordercolor="#eeeeee"
     borderopacity="1"
     inkscape:showpageshadow="0"
     inkscape:pageopacity="0"
     inkscape:pagecheckerboard="0"
     inkscape:deskcolor="#505050"
     inkscape:document-units="mm"
     inkscape:zoom="0.71446409"
     inkscape:cx="397.50074"
     inkscape:cy="393.30178"
     inkscape:window-width="1920"
     inkscape:window-height="1011"
     inkscape:window-x="0"
     inkscape:window-y="0"
     inkscape:window-maximized="1"
     inkscape:current-layer="layer1" /><defs
     id="defs1" /><g
     inkscape:label="Camada 1"
     inkscape:groupmode="layer"
     id="layer1"><path
       style="fill:#ffffff;stroke-width:3.57989"
       d="m 49.973015,219.29143 c -11.08307,-3.95399 -18.13857,-13.95425 -18.02094,-25.54237 0.10668,-10.51143 5.48737,-18.96073 14.9147,-23.42063 14.99493,-7.09389 32.07113,0.21837 36.98371,15.8367 6.41822,20.40515 -13.88544,40.25867 -33.87747,33.1263 z m 15.92745,-16.66473 c 2.89954,-2.72394 4.5566,-7.69713 3.76526,-11.30015 -0.33794,-1.53921 -2.09137,-4.09511 -3.89625,-5.67979 -2.63118,-2.31025 -4.13846,-2.88124 -7.60559,-2.88124 -3.65468,0 -4.82262,0.49853 -7.54448,3.2204 -3.0931,3.0931 -3.6675,4.87922 -3.22885,10.0401 0.29605,3.48216 1.65552,5.5532 5.04156,7.68005 3.91787,2.46089 10.23918,1.9543 13.46835,-1.07937 z m 138.724345,17.18918 c -11.58415,-3.75871 -19.21609,-13.91923 -19.21609,-25.58271 0,-7.69792 2.35733,-13.54639 7.55515,-18.74422 5.83942,-5.83941 9.90761,-7.40476 19.24451,-7.40476 7.0723,0 8.58828,0.31575 12.4706,2.59807 8.58838,5.04873 14.05044,14.21763 14.05044,23.58578 0,9.02069 -7.05629,19.85259 -15.62846,23.99077 -4.09787,1.97818 -14.48139,2.85328 -18.47615,1.55707 z m 12.29103,-15.52979 c 3.02358,-1.52994 6.65871,-6.94253 6.65871,-9.91456 0,-10.3388 -13.27912,-15.52496 -20.1276,-7.86083 -2.03277,2.27487 -2.60473,3.86127 -2.60473,7.22458 0,5.30315 1.1345,7.53818 5.03315,9.91534 3.45739,2.10813 7.65288,2.34963 11.04047,0.63547 z M 1.5283849,187.90736 c -1.83080004,-1.8308 -2.10069004,-13.62254 -0.35191,-15.37139 0.78797,-0.78801 5.72053,-1.13662 16.0812101,-1.13662 h 14.94459 l -2.75355,4.34188 c -1.51443,2.38804 -3.29056,6.43722 -3.94694,8.99821 l -1.19335,4.65633 h -10.64586 c -8.4151501,0 -10.9577301,-0.31181 -12.1343001,-1.48841 z m 91.0419701,0.77801 c -0.22267,-0.39071 -0.67939,-2.23349 -1.01465,-4.09507 -0.33507,-1.86158 -1.88302,-5.39279 -3.43952,-7.84713 -1.55651,-2.45434 -2.82998,-4.66074 -2.82998,-4.90313 0,-0.24236 16.611885,-0.44069 36.915365,-0.44069 h 36.91537 l 0.26133,-49.33592 0.26133,-49.335857 2.83034,-2.43404 2.8303,-2.43405 30.58114,0.60994 c 32.95121,0.6572 33.38194,0.72481 38.20406,5.99617 4.38133,4.7895 24.74291,33.819287 26.79963,38.208567 1.84332,3.93383 2.0337,6.34249 2.4708,31.25695 l 0.47359,26.99462 2.36796,0.32756 c 4.01814,0.55582 4.73591,1.86004 4.73591,8.6056 0,9.49238 -0.23377,9.6524 -13.64158,9.33211 l -11.25225,-0.26885 -1.10956,-4.37614 c -3.08017,-12.14819 -14.51937,-22.31885 -27.3689,-24.33386 -11.53445,-1.80878 -22.58129,1.978 -30.64601,10.50523 -4.35265,4.60231 -8.80539,13.34717 -8.80539,17.29311 0,1.19497 -5.84643,1.38524 -42.56724,1.38524 -23.41197,0 -42.749515,-0.31968 -42.972295,-0.71039 z m 95.011325,-65.59225 c 0,-1.72594 -0.63146,-1.89434 -7.10387,-1.89434 -5.2884,0 -7.10383,0.32291 -7.10383,1.26291 0,2.17425 1.07661,2.5258 7.73529,2.5258 5.84095,0 6.47241,-0.18472 6.47241,-1.89437 z m 53.5143,-9.4695 c 0.62437,-1.01025 -15.38567,-25.153417 -18.62497,-28.086527 -1.76675,-1.59976 -3.86621,-1.75193 -24.17023,-1.75193 -20.91704,0 -22.31524,0.109 -23.58112,1.8386 -1.76417,2.41038 -1.9421,26.075127 -0.20907,27.808117 1.46267,1.46271 65.68559,1.64761 66.58539,0.19188 z M 0.61711486,158.5408 c -0.31753,-0.82728 -0.57718,-23.67542 -0.57718,-50.77368 0,-53.621098 0.0483,-54.135723 5.29971004,-56.528445 1.69877,-0.774002 21.2986901,-1.078422 69.4338001,-1.078422 H 141.8404 l 2.51431,2.330175 2.5143,2.330171 -0.24487,52.369481 -0.24486,52.36949 -72.592485,0.24271 c -65.5821301,0.21909 -72.6482601,0.0974 -73.16971014,-1.26144 z"
       id="path1" /></g></svg>
